<svg id="bedbathbeyond" xmlns="http://www.w3.org/2000/svg" width="450" height="240" viewBox="0 0 450 240"><g fill-rule="evenodd" clip-rule="evenodd"><path d="M331.159 190.247v-52.22c.448-.026.861-.07 1.273-.07 16.073.019 32.146-.077 48.219.1 12.469.137 24.867 1.219 37.005 4.317 6.207 1.583 12.203 3.712 17.497 7.442 4.143 2.92 7.271 6.596 8.291 11.726 1.251 6.291-1.025 11.342-5.651 15.471-4.966 4.433-10.961 6.924-17.238 8.797-10.993 3.276-22.287 4.421-33.701 4.466-18.184.075-36.369.04-54.552.048-.338-.001-.676-.045-1.143-.077zm42.575-35.92v20.19c.237.046.401.111.562.102 4.682-.293 9.38-.428 14.036-.943 3.424-.379 6.771-1.338 9.683-3.342 4.063-2.796 4.391-7.922.611-11.092-1.196-1.003-2.641-1.824-4.104-2.378-6.664-2.521-13.661-2.467-20.788-2.537zM298.425 165.067v-1.951c0-7.887.025-15.772-.026-23.657-.007-1.192.33-1.509 1.52-1.502 8.316.054 16.634.028 24.95.029h1.473v52.306c-.419.025-.833.072-1.247.072-8.488.004-16.978-.009-25.466.02-.85.003-1.432-.261-2.007-.881-7.592-8.18-15.209-16.335-22.81-24.504-.309-.332-.526-.75-.787-1.128l-.399.259v26.133h-27.959v-52.214c.448-.021.866-.062 1.285-.063 8.488-.002 16.978.015 25.465-.02.947-.004 1.58.276 2.218.981 7.577 8.367 15.186 16.705 22.787 25.05.247.273.504.538 1.003 1.07zM200.39 191.163c-9.048-.127-17.867-1.4-26.112-5.38-5.466-2.64-10.142-6.22-13.067-11.696-4.64-8.687-2.622-18.947 5.083-25.956 5.41-4.92 11.902-7.739 18.934-9.283 13.504-2.966 26.805-2.428 39.671 3.031 5.355 2.271 10.042 5.537 13.443 10.371 6.313 8.971 4.847 20.526-3.548 28.16-4.734 4.307-10.415 6.804-16.508 8.484-5.856 1.616-11.844 2.197-17.896 2.269zm.12-36.814c-3.713.1-6.982.728-9.854 2.707-5.912 4.072-5.734 11.859.58 15.269 6.172 3.333 12.654 3.316 18.785-.161 5.944-3.369 6.125-10.902.588-14.915-3.106-2.251-6.675-2.858-10.099-2.9zM40.405 163.329c1.081.479 2.074.862 3.017 1.346 4.409 2.26 7.031 5.743 7.173 10.818.145 5.127-2.114 8.96-6.51 11.52-3.855 2.242-8.11 3.164-12.509 3.213-9.781.107-19.564.075-29.345.095-.25 0-.502-.06-.815-.098v-52.152c.271-.041.515-.109.76-.108 8.402.003 16.806-.02 25.208.036 4.067.026 8.088.503 11.921 1.973 6.897 2.646 10.216 9.212 8.123 16.028-.966 3.146-2.925 5.419-6.001 6.68-.239.098-.477.199-.708.313-.071.035-.116.119-.314.336zm-19.637 14.732c2.701-.303 5.315-.417 7.842-.942 1.896-.393 2.755-1.9 2.727-3.742-.027-1.757-.964-3.022-2.774-3.61-2.544-.828-5.161-.544-7.795-.577v8.871zm.029-27.57v7.837c2.13-.284 4.153-.382 6.081-.863 1.569-.392 2.237-1.83 2.126-3.579-.099-1.558-.938-2.718-2.562-2.974-1.844-.29-3.734-.291-5.645-.421zM76.864 157.281h17.291v13.595h-17.36c0 1.593-.052 3.049.052 4.494.017.235.717.601 1.104.604 4.611.043 9.222.03 13.831.032h4.71v14.234H54.013v-52.165h41.83v14.174H76.864v5.032z"/><path d="M96.617 137.954c9.555 0 18.777-.013 27.999.039.451.004 1.068.482 1.319.91 2.288 3.9 4.503 7.845 6.768 11.76.216.373.616.64.932.955.276-.351.609-.671.82-1.058 2.167-3.965 4.302-7.949 6.493-11.899.185-.333.711-.674 1.08-.675 9.136-.032 18.271-.02 27.408-.011.069 0 .138.069.356.186-.313.412-.599.811-.906 1.192-7.383 9.157-14.777 18.307-22.127 27.49a3.603 3.603 0 0 0-.734 2.073c-.055 6.55-.032 13.101-.031 19.65v1.648h-24.917c-.022-.377-.063-.748-.063-1.12-.003-6.594-.026-13.188.023-19.782.008-1.11-.302-1.952-1-2.798-7.516-9.104-15.003-18.23-22.497-27.355-.262-.314-.5-.649-.923-1.205zM410.249 83.936l14.359 17.45 7.742-8.996 5.813 5.288-8.422 10 12.262 15.307c-3.596 0-6.893.024-10.188-.036-.364-.007-.79-.457-1.066-.798-2.248-2.769-4.467-5.562-6.717-8.376-1.085 1.059-2.063 2.066-3.098 3.015-5.438 4.998-11.636 8.113-19.244 7.637-13.066-.814-22.11-12.872-18.85-25.117 1.022-3.845 3.26-6.938 6.239-9.452 2.99-2.524 6.146-4.851 9.34-7.35-.804-.965-1.661-1.959-2.477-2.987-2.359-2.973-4.286-6.187-4.791-10.02-1.318-10.015 5.53-17.438 15.868-17.287 3.623.053 6.993.956 9.975 3.056 6.272 4.417 7.612 12.902 3.1 19.506-2.195 3.217-5.177 5.629-8.232 7.958-.508.388-1.024.765-1.613 1.202zm-6.822 4.686c-3.225 2.587-6.398 5.004-9.412 7.606a10.915 10.915 0 0 0-3.437 5.518c-2.064 7.815 6.34 16.378 14.58 14.833 5.804-1.088 9.684-5.09 13.7-9.011-5.107-6.268-10.13-12.437-15.431-18.946zm2.022-10.276c2.667-2.42 5.277-4.421 7.426-6.833 2.54-2.849 2.428-7.223.194-9.884-2.203-2.625-6.861-3.419-10.096-1.723-3.621 1.899-5.136 6.118-3.139 9.968 1.489 2.87 3.57 5.433 5.615 8.472zM91.351 122.918V53.861c.183-.069.336-.179.487-.176 6.804.126 13.635-.072 20.404.484 8.2.674 15.687 3.578 21.894 9.203 5.603 5.078 8.691 11.502 9.653 18.936 1.028 7.945.266 15.676-3.505 22.887-4.264 8.153-11.207 12.992-19.821 15.678a45.808 45.808 0 0 1-12.846 2.067c-5.127.092-10.255.043-15.384.05-.252-.001-.502-.04-.882-.072zm8.586-7.833c6.127.175 12.032-.198 17.777-1.968 5.582-1.718 10.408-4.574 13.746-9.521 3.425-5.076 4.359-10.803 4.115-16.777-.438-10.714-5.27-18.458-15.477-22.432-6.381-2.485-13.063-2.958-19.829-2.75-.111.004-.217.115-.333.18l.001 53.268zM1.289 122.889V53.86c.161-.074.274-.175.384-.17 5.591.218 11.188.333 16.767.73 1.935.137 3.862.854 5.718 1.516 12.158 4.336 12.814 19.307 7.75 25.97-1.169 1.538-2.717 2.789-4.102 4.184a16.82 16.82 0 0 1 6.795 3.364c9.492 7.785 9.505 25.256-4.49 31.144-3.38 1.421-6.902 2.244-10.542 2.321-5.86.124-11.723.061-17.585.07-.209-.002-.415-.059-.695-.1zm8.689-31.547v23.731c3.553 0 6.996.089 10.43-.043 1.437-.057 2.893-.47 4.275-.919 5.241-1.701 7.941-5.458 7.966-10.923.023-5.096-2.657-8.667-7.818-10.46-4.828-1.679-9.815-1.433-14.853-1.386zm-.046-6.611c3.376-.415 6.611-.565 9.727-1.257 3.83-.851 6.275-3.45 6.789-7.388.295-2.266.255-4.642-.071-6.906-.391-2.722-1.985-4.831-4.528-6.07-3.771-1.84-7.81-1.704-11.917-1.668v23.289zM168.445 53.803c3.951 0 7.816-.063 11.678.018 3.809.081 7.514.765 11.125 2.059 12.191 4.371 13.161 19.84 7.218 26.795-1.045 1.223-2.356 2.216-3.561 3.332-.005-.005.072.125.173.146 7.624 1.616 13.319 9.422 13.266 17.612-.057 8.822-5.053 15.372-14.018 17.825-2.918.799-6.004 1.21-9.033 1.331-5.333.214-10.682.067-16.024.069-.25 0-.5-.034-.825-.058l.001-69.129zm8.559 61.472c2.704 0 5.283.051 7.858-.014 2.811-.072 5.562-.503 8.186-1.602 4.346-1.818 6.665-5.366 6.712-10.357.048-4.769-2.094-8.283-6.505-9.997-2.258-.878-4.695-1.503-7.1-1.739-3.005-.295-6.061-.071-9.151-.071v23.78zm-.011-30.898c3.543.081 6.936.063 10.227-.986 3.456-1.102 5.589-3.427 6.355-6.987.552-2.571.535-5.14-.13-7.681-.552-2.11-1.65-3.904-3.542-5.068-3.996-2.46-8.439-2.215-12.911-2.233l.001 22.955zM309.941 53.729h8.465v27.826h32.757V53.744h8.508v69.18h-8.469V89.819h-32.737v33.063h-8.523l-.001-69.153zM273.638 122.996c-3.028 0-5.741.045-8.448-.046-.423-.015-1.003-.571-1.208-1.017a1094.485 1094.485 0 0 1-6.874-15.181c-.361-.814-.776-1.149-1.713-1.145-9.738.038-19.477.037-29.216 0-.924-.003-1.359.299-1.726 1.127-2.25 5.08-4.573 10.126-6.826 15.204-.346.779-.742 1.1-1.627 1.077-2.62-.063-5.242-.022-8.083-.022l32.855-72.253 32.866 72.256zM240.771 69.7l-12.202 27.93h24.418L240.771 69.7zM82.383 80.95v7.977H54.904v26.132h28.243v7.864H46.348V53.764h36.798v7.813H54.924V80.95h27.459zM280.268 122.917V61.648h-16.271v-7.906h41.08v7.811h-16.205v61.365l-8.604-.001zM441.578 145.469c-3.923.014-6.964-2.989-6.997-6.909-.033-3.86 3.04-6.982 6.918-7.027 3.815-.044 6.991 3.104 7.008 6.948.017 3.898-3.033 6.975-6.929 6.988zm-.015-1.065c3.257-.017 5.915-2.718 5.871-5.964-.043-3.187-2.722-5.806-5.919-5.787-3.218.02-5.85 2.639-5.862 5.838-.013 3.256 2.66 5.93 5.91 5.913z"/><path d="M442.654 138.878c.712 1.136 1.363 2.179 2.016 3.219l-.24.31c-.418-.231-.944-.371-1.23-.714-.55-.654-.907-1.471-1.454-2.128-.349-.418-.896-.668-1.355-.993-.125.093-.248.188-.373.282 0 .934.037 1.872-.027 2.803-.017.217-.38.411-.583.615-.153-.21-.438-.416-.439-.628-.032-2.272-.021-4.547-.021-6.9 1.438 0 2.766-.056 4.083.019 1.039.06 1.797.57 1.891 1.737.095 1.172-.461 1.876-1.562 2.191-.193.056-.384.101-.706.187zm-2.575-1.219c.964 0 1.792.105 2.571-.043.438-.082.798-.584 1.193-.896-.356-.308-.681-.814-1.076-.875-.864-.135-1.763-.042-2.688-.042v1.856z"/></g></svg>
