<svg id="target" xmlns="http://www.w3.org/2000/svg" width="792" height="184" viewBox="0 0 792 184"><path d="M33.413 94.54c0-42.797 34.695-77.49 77.49-77.49 42.797 0 77.492 34.693 77.492 77.49 0 42.799-34.695 77.492-77.492 77.492-42.796 0-77.49-34.693-77.49-77.492zm77.49 51.467c28.425 0 51.467-23.042 51.467-51.467 0-28.422-23.042-51.465-51.467-51.465-28.422 0-51.467 23.043-51.467 51.465 0 28.425 23.045 51.467 51.467 51.467zm0-25.236c14.759 0 26.725-11.966 26.725-26.726 0-14.759-11.966-26.725-26.725-26.725S84.178 79.287 84.178 94.045c0 14.761 11.966 26.726 26.725 26.726zm0-26.726"/><g><path d="M213.561 38.92h88.298v22.281h-30.367v89.29h-26.985V61.367h-30.946zM384.346 38.92h52.402c29.788 0 33.915 20.384 33.915 32.268 0 17.247-14.854 25.912-16.173 26.241 0 0 13.037 4.869 13.037 19.641v20.795c0 8.336 5.118 10.646 6.023 12.626h-21.29c-10.148-1.156-9.984-9.242-9.902-13.863V118.72c-.246-4.375-1.568-9.244-10.728-9.408h-21.538v41.179h-25.83l.084-111.571zm50.504 22.447h-24.757v22.281s19.311.061 22.197 0c7.759-.165 13.763-3.631 13.763-11.223 0-8.268-5.098-11.058-11.203-11.058zM584.545 38.92v111.571h80.377v-22.942h-54.134v-24.921H657V81.502h-46.212V61.367h54.134V38.92zM668.718 61.367h31.854v89.124h26.407V61.367h32.349V38.92h-90.61zM314.795 38.9h28.635l39.018 111.59h-27.751l-8.063-23.188h-32.927l-7.603 23.188h-27.52L314.795 38.9zm14.958 39.384l-9.49 28.801h19.557l-10.067-28.801zM575.302 88.187h-47.945v21.704h22.777c-.039 4.466.662 8.923-4.693 15.194-1.819 2.132-8.061 6.921-16.764 6.921-7.344 0-12.622-2.098-17.204-5.989-10.122-8.594-12.504-24.652-12.504-33.044 0-10.562 4.21-36.804 30.038-37.876 0 0 17.418-1.125 21.952 19.888h24.178c-.494-10.646-12.873-40.55-46.13-40.602-11.479-.014-26.051 3.441-38.115 15.528-8.73 8.744-16.596 23.437-16.596 44.137 0 22.457 8.268 37.051 15.827 45.073 13.27 14.081 26.638 15.168 33.602 15.168 5.53 0 16.094-.825 29.792-10.067l3.63 6.271h18.155V88.187z"/></g><path d="M740.484 147.243h-1.569v-9.551h3.621c2.309 0 3.484.808 3.484 2.745 0 1.731-1.062 2.447-2.491 2.608l2.676 4.199h-1.776l-2.468-4.084h-1.477v4.083zm1.752-5.422c1.177 0 2.215-.116 2.215-1.499 0-1.154-1.13-1.292-2.076-1.292h-1.891v2.792h1.752zm-.045 9.112c-4.961 0-8.489-3.714-8.489-8.628 0-5.19 3.922-8.626 8.489-8.626 4.521 0 8.442 3.436 8.442 8.626.001 5.191-3.921 8.628-8.442 8.628zm0-15.756c-3.737 0-6.644 2.93-6.644 7.127 0 3.921 2.537 7.129 6.644 7.129 3.691 0 6.597-2.906 6.597-7.129 0-4.197-2.905-7.127-6.597-7.127z"/></svg>
